<svg width="240" height="240" viewBox="0 0 240 240" fill="none" xmlns="http://www.w3.org/2000/svg">
    <rect width="240" height="240" fill="url(#paint0_linear_1_14)"/>
    <g clip-path="url(#clip0_1_14)">
        <path d="M113.125 80.1766C113.125 77.9664 111.732 76.0205 109.954 74.6992C107.167 72.6092 105.438 69.7264 105.438 66.5312C105.438 60.165 112.332 55 120.812 55C129.293 55 136.188 60.165 136.188 66.5312C136.188 69.7264 134.458 72.6092 131.671 74.6992C129.893 76.0205 128.5 77.9664 128.5 80.1766C128.5 83.2516 130.998 85.75 134.073 85.75H147.719C154.085 85.75 159.25 90.915 159.25 97.2812V110.927C159.25 114.002 161.748 116.5 164.823 116.5C167.034 116.5 168.979 115.107 170.301 113.329C172.391 110.542 175.274 108.812 178.469 108.812C184.835 108.812 190 115.707 190 124.188C190 132.668 184.835 139.562 178.469 139.562C175.274 139.562 172.391 137.833 170.301 135.046C168.979 133.268 167.034 131.875 164.823 131.875C161.748 131.875 159.25 134.373 159.25 137.448V166.469C159.25 172.835 154.085 178 147.719 178H134.073C130.998 178 128.5 175.502 128.5 172.427C128.5 170.216 129.893 168.271 131.671 166.949C134.458 164.859 136.188 161.976 136.188 158.781C136.188 152.415 129.293 147.25 120.812 147.25C112.332 147.25 105.438 152.415 105.438 158.781C105.438 161.976 107.167 164.859 109.954 166.949C111.732 168.271 113.125 170.216 113.125 172.427C113.125 175.502 110.627 178 107.552 178H78.5312C72.165 178 67 172.835 67 166.469V137.448C67 134.373 69.4984 131.875 72.5734 131.875C74.7836 131.875 76.7295 133.268 78.0508 135.046C80.1408 137.833 83.0236 139.562 86.2188 139.562C92.585 139.562 97.75 132.668 97.75 124.188C97.75 115.707 92.585 108.812 86.2188 108.812C83.0236 108.812 80.1408 110.542 78.0508 113.329C76.7295 115.107 74.7836 116.5 72.5734 116.5C69.4984 116.5 67 114.002 67 110.927V97.2812C67 90.915 72.165 85.75 78.5312 85.75H107.552C110.627 85.75 113.125 83.2516 113.125 80.1766Z"
              fill="white"/>
    </g>
    <defs>
        <linearGradient id="paint0_linear_1_14" x1="1.75248e-05" y1="81.1572" x2="245.382" y2="106.289" gradientUnits="userSpaceOnUse">
            <stop stop-color="#5850EC"/>
            <stop offset="1" stop-color="#7E3AF2"/>
        </linearGradient>
        <clipPath id="clip0_1_14">
            <rect width="123" height="123" fill="white" transform="translate(67 55)"/>
        </clipPath>
    </defs>
</svg>
