<svg width="512" height="288" viewBox="0 0 512 288" fill="none" xmlns="http://www.w3.org/2000/svg">
    <rect width="512" height="288" fill="#F3F4F6"/>
    <g clip-path="url(#clip0_1_5)">
        <path d="M249.125 104.177C249.125 101.966 247.732 100.021 245.954 98.6992C243.167 96.6092 241.438 93.7264 241.438 90.5312C241.438 84.165 248.332 79 256.812 79C265.293 79 272.188 84.165 272.188 90.5312C272.188 93.7264 270.458 96.6092 267.671 98.6992C265.893 100.021 264.5 101.966 264.5 104.177C264.5 107.252 266.998 109.75 270.073 109.75H283.719C290.085 109.75 295.25 114.915 295.25 121.281V134.927C295.25 138.002 297.748 140.5 300.823 140.5C303.034 140.5 304.979 139.107 306.301 137.329C308.391 134.542 311.274 132.812 314.469 132.812C320.835 132.812 326 139.707 326 148.188C326 156.668 320.835 163.562 314.469 163.562C311.274 163.562 308.391 161.833 306.301 159.046C304.979 157.268 303.034 155.875 300.823 155.875C297.748 155.875 295.25 158.373 295.25 161.448V190.469C295.25 196.835 290.085 202 283.719 202H270.073C266.998 202 264.5 199.502 264.5 196.427C264.5 194.216 265.893 192.271 267.671 190.949C270.458 188.859 272.188 185.976 272.188 182.781C272.188 176.415 265.293 171.25 256.812 171.25C248.332 171.25 241.438 176.415 241.438 182.781C241.438 185.976 243.167 188.859 245.954 190.949C247.732 192.271 249.125 194.216 249.125 196.427C249.125 199.502 246.627 202 243.552 202H214.531C208.165 202 203 196.835 203 190.469V161.448C203 158.373 205.498 155.875 208.573 155.875C210.784 155.875 212.729 157.268 214.051 159.046C216.141 161.833 219.024 163.562 222.219 163.562C228.585 163.562 233.75 156.668 233.75 148.188C233.75 139.707 228.585 132.812 222.219 132.812C219.024 132.812 216.141 134.542 214.051 137.329C212.729 139.107 210.784 140.5 208.573 140.5C205.498 140.5 203 138.002 203 134.927V121.281C203 114.915 208.165 109.75 214.531 109.75H243.552C246.627 109.75 249.125 107.252 249.125 104.177Z"
              fill="#9CA3AF"/>
    </g>
    <defs>
        <clipPath id="clip0_1_5">
            <rect width="123" height="123" fill="white" transform="translate(203 79)"/>
        </clipPath>
    </defs>
</svg>
